<svg xmlns="http://www.w3.org/2000/svg" xml:space="preserve" width="2000" height="1500" data-id="lg_KpPpZ4tRbk1dKE4dA4" data-version="1" viewBox="0 0 2000 1500"><path fill="#fff" stroke="transparent" d="M0 0h2000v1500H0z"/><g data-padding="20"><g transform="translate(-1614.437 -1213.199)scale(2.54786)"><rect width="586.32" height="394.37" x="487.537" y="416.372" fill="none" rx="0" ry="0" transform="matrix(.95 0 0 .95 278.75 187.65)"/><path fill="#212121" d="M1055.252 635.43V705q-52.01-1.66-101.04-1.99v172.93h-82.82V703.01q-49.36.33-100.71 1.99v-69.57Zm255.1 240.51h-85.81q-6.29-18.88-16.89-47.37h-105.68l-16.57 47.37h-83.15l92.76-240.51h121.91Zm-189.5-99.05h67.91q-12.58-34.79-25.84-69.57l-7.95-21.54q-11.59 30.15-34.12 91.11"/></g><path fill="transparent" stroke="transparent" stroke-width="2.641" d="M250 254.842h1500v990.316H250z"/></g></svg>